# xmcd CD database file
#
# Track frame offsets:
#	150
#	10346
#	33575
#	66325
#	107076
#	141118
#	173237
#	201263
#	228843
#	270753
#
# Disc length: 4078 seconds
#
# Revision: 0
# Processed by: cddbd v1.5.2PL0 Copyright (c) Steve Scherf et al.
# Submitted via: CDex 1.70beta2
#
DISCID=840fec0a
DTITLE=Colin Stranahan - Transformation
DYEAR=2006
DGENRE=Jazz
TTITLE0=Song For Briana #3
TTITLE1=Casa Zimbabwe
TTITLE2=You Are
TTITLE3=Piece of Mind
TTITLE4=Search, The
TTITLE5=No Thanks
TTITLE6=Sisyphus
TTITLE7=Out of Reach
TTITLE8=It's Not Always About You
TTITLE9=Moods of Perpetual Motion
EXTD=YEAR: 2006
EXTT0=
EXTT1=
EXTT2=
EXTT3=
EXTT4=
EXTT5=
EXTT6=
EXTT7=
EXTT8=
EXTT9=
PLAYORDER=
